# xmcd
#
# Track frame offsets:
#   150
#   16277
#   31130
#   48681
#   70884
#
# Disc length: 1215 seconds
#
# Revision: 0
# Processed by: cddbd v1.5.1PL0 Copyright (c) Steve Scherf et al.
# Submitted via: GXTranscoder 2.0.1939
#
DISCID=3b04bd05
DTITLE=Various Artist - the all new Volvo C70 music for all senses
DYEAR=2005
DGENRE=Blues
TTITLE0=feel free
TTITLE1=The sensation of movement
TTITLE2=Breath of cold air
TTITLE3=Open up
TTITLE4=The right buttons
EXTD=
EXTT0=
EXTT1=
EXTT2=
EXTT3=
EXTT4=
PLAYORDER=
